<?xml version="1.0" encoding="utf-8"?>
<!-- Generator: Adobe Illustrator 16.0.0, SVG Export Plug-In . SVG Version: 6.00 Build 0)  -->
<!DOCTYPE svg PUBLIC "-//W3C//DTD SVG 1.1//EN" "http://www.w3.org/Graphics/SVG/1.1/DTD/svg11.dtd">
<svg version="1.1" id="Layer_1" xmlns="http://www.w3.org/2000/svg" xmlns:xlink="http://www.w3.org/1999/xlink" x="0px" y="0px"
	 width="16px" height="16px" viewBox="0 0 16 16" enable-background="new 0 0 16 16" xml:space="preserve">
<path fill="#444444" d="M5.502,10.872v-2.85c0.496-0.117,0.971-0.168,1.423-0.168c3.325,0,5.407,2.775,5.407,2.775
	c0-6.076-6.705-6.104-6.828-6.104c-0.002,0-0.002,0-0.002,0V1.703L0,6.288L5.502,10.872z"/>
<path fill="#444444" d="M3.622,10.798L2.246,9.652v4.645H16V3.982H8.756c0.225,0.081,0.453,0.17,0.682,0.273
	c0.662,0.3,1.248,0.67,1.756,1.102h3.432v7.565H3.622V10.798z"/>
</svg>
