<?xml version="1.0" encoding="utf-8"?>
<!-- Generator: Adobe Illustrator 16.0.0, SVG Export Plug-In . SVG Version: 6.00 Build 0)  -->
<!DOCTYPE svg PUBLIC "-//W3C//DTD SVG 1.1//EN" "http://www.w3.org/Graphics/SVG/1.1/DTD/svg11.dtd">
<svg version="1.1" id="Layer_1" xmlns="http://www.w3.org/2000/svg" xmlns:xlink="http://www.w3.org/1999/xlink" x="0px" y="0px"
	 width="16px" height="16px" viewBox="0 0 100 100" enable-background="new 0 0 100 100" xml:space="preserve">
<path fill="#444444" d="M100,39.297L65.616,10.645V28.29c0,0-0.005,0-0.013,0c-0.771,0-42.682,0.175-42.682,38.146
	c0,0,13.02-17.347,33.799-17.347c2.825,0,5.793,0.32,8.896,1.05V67.95L100,39.297z"/>
<path fill="#444444" d="M77.361,80.76H8.596V33.482h21.443c3.179-2.696,6.837-5.008,10.979-6.885
	c1.43-0.647,2.853-1.207,4.259-1.711H0v64.47h85.958V60.323l-8.597,7.163V80.76z"/>
</svg>
